Coordinates
version=1
nRows=39
nColumns=30
inDegrees=yes

Units are S.I. units (second, meters, Newtons, ...)
Angles are in degrees.

endheader
time	floatyaw	floatroll	floatpitch	floatx	floaty	floatz	pro_sup_l	deviation_l	flexion_l	cmc_flexion_l	cmc_abduction_l	mp_flexion_l	ip_flexion_l	2mcp_flexion_l	2mcp_abduction_l	2pm_flexion_l	2md_flexion_l	3mcp_flexion_l	3mcp_abduction_l	3pm_flexion_l	3md_flexion_l	4mcp_flexion_l	4mcp_abduction_l	4pm_flexion_l	4md_flexion_l	5mcp_flexion_l	5mcp_abduction_l	5pm_flexion_l	5md_flexion_l
-0.495000	-160.147433	-5.066637	-73.570646	0.071469	-0.174410	-0.022798	102.672290	4.266194	0.764806	14.987462	8.708500	-24.892878	-40.362519	29.441097	5.955998	41.991827	28.180933	22.981282	3.831902	43.617083	29.063654	12.591481	-4.253151	51.063955	35.469201	0.799408	-6.688516	61.513370	40.836453
-0.485000	-160.147433	-5.066637	-73.570646	0.070676	-0.174079	-0.023372	102.723800	4.327396	0.698874	15.053728	8.659573	-25.087591	-40.607840	29.526930	5.982383	42.077411	28.276336	23.096837	3.850960	43.840834	29.246755	12.654853	-4.260864	51.292817	35.760765	1.029500	-6.773714	61.648024	41.005588
-0.475000	-160.147433	-5.066637	-73.570646	0.069912	-0.173768	-0.023942	102.791508	4.396262	0.652877	15.042610	8.711122	-25.286905	-40.855231	29.544147	6.009571	42.169990	28.403172	23.160386	3.880358	44.052138	29.452910	12.721875	-4.278453	51.556977	36.057652	1.274656	-6.858754	61.794242	41.207970
-0.465000	-160.147433	-5.066637	-73.570646	0.069182	-0.173460	-0.024529	102.924091	4.476360	0.637320	14.975764	8.831378	-25.465640	-41.072424	29.501242	6.034229	42.249101	28.543820	23.181896	3.910591	44.228143	29.658931	12.833719	-4.301532	51.817841	36.314965	1.543196	-6.935206	61.951235	41.426808
-0.455000	-160.147433	-5.066637	-73.570646	0.068468	-0.173126	-0.025173	103.168682	4.566910	0.668764	14.888605	8.968044	-25.601556	-41.239807	29.404967	6.053688	42.309113	28.683830	23.178237	3.931070	44.371800	29.847055	13.014696	-4.322847	52.041401	36.497597	1.835727	-6.999478	62.120345	41.639226
-0.445000	-160.147433	-5.066637	-73.570646	0.067730	-0.172740	-0.025923	103.553377	4.667834	0.762955	14.816026	9.068857	-25.683313	-41.353733	29.263093	6.069063	42.366269	28.819071	23.169708	3.935614	44.510694	30.011678	13.271996	-4.337182	52.205466	36.593174	2.148776	-7.050640	62.293327	41.819180
-0.435000	-160.147433	-5.066637	-73.570646	0.066911	-0.172275	-0.026827	104.071486	4.785289	0.923612	14.780677	9.098869	-25.715988	-41.425846	29.091895	6.087761	42.455293	28.958595	23.175407	3.925813	44.685854	30.162207	13.601396	-4.344804	52.303778	36.618582	2.478856	-7.087486	62.448007	41.945867
-0.425000	-160.147433	-5.066637	-73.570646	0.065948	-0.171716	-0.027913	104.675706	4.933538	1.134073	14.789312	9.048701	-25.720960	-41.479435	28.919290	6.121907	42.617639	29.121780	23.207948	3.910605	44.935414	30.319513	13.992291	-4.351282	52.346938	36.616358	2.823078	-7.107236	62.556607	42.013844
-0.415000	-160.147433	-5.066637	-73.570646	0.064801	-0.171059	-0.029182	105.287431	5.131805	1.358547	14.836028	8.934208	-25.728657	-41.542527	28.778144	6.181900	42.885596	29.329818	23.269815	3.902304	45.278543	30.506002	14.428981	-4.363848	52.359480	36.640576	3.176039	-7.107324	62.602184	42.038199
-0.405000	-160.147433	-5.066637	-73.570646	0.063464	-0.170307	-0.030606	105.819461	5.398320	1.554552	14.906952	8.790436	-25.766286	-41.638016	28.692967	6.269082	43.267014	29.594131	23.354291	3.910924	45.705031	30.733388	14.889756	-4.386623	52.372925	36.736855	3.526466	-7.089440	62.592244	42.050169
-0.395000	-160.147433	-5.066637	-73.570646	0.061958	-0.169456	-0.032148	106.203244	5.745441	1.690821	14.982379	8.661747	-25.845863	-41.773513	28.669354	6.373573	43.736596	29.907324	23.452145	3.939517	46.175228	30.994638	15.348122	-4.417786	52.416406	36.925573	3.858573	-7.062726	62.559792	42.084649
-0.385000	-160.147433	-5.066637	-73.570646	0.060311	-0.168483	-0.033780	106.408264	6.178436	1.760414	15.037208	8.589422	-25.958653	-41.935856	28.694464	6.480091	44.239215	30.242965	23.561600	3.982843	46.632045	31.265100	15.779630	-4.450531	52.507822	37.197045	4.160317	-7.042992	62.549894	42.166757
-0.375000	-160.147433	-5.066637	-73.570646	0.058521	-0.167339	-0.035512	106.443703	6.697650	1.780666	15.043096	8.599652	-26.079537	-42.094713	28.749661	6.577993	44.706154	30.566649	23.695992	4.029974	47.020922	31.512812	16.173714	-4.476958	52.648235	37.520600	4.435033	-7.047562	62.599694	42.305443
-0.365000	-160.147433	-5.066637	-73.570646	0.056549	-0.165960	-0.037389	106.341327	7.301759	1.779233	14.973823	8.696202	-26.179384	-42.214965	28.828396	6.667747	45.077702	30.853578	23.884431	4.069371	47.308268	31.712576	16.545571	-4.491907	52.820811	37.860454	4.709711	-7.089217	62.724478	42.496783
-0.355000	-160.147433	-5.066637	-73.570646	0.054322	-0.164282	-0.039481	106.129722	7.989924	1.773625	14.812668	8.860657	-26.238026	-42.270981	28.949001	6.758657	45.320893	31.102161	24.165024	4.093898	47.488837	31.856065	16.941487	-4.494015	52.994366	38.187943	5.035561	-7.173800	62.917635	42.732396
-0.345000	-160.147433	-5.066637	-73.570646	0.051758	-0.162263	-0.041859	105.815698	8.761739	1.755541	14.559782	9.059969	-26.249683	-42.253903	29.154197	6.859653	45.434188	31.334023	24.573610	4.103604	47.579557	31.953175	17.432037	-4.483836	53.131399	38.485059	5.480370	-7.302760	63.161983	43.005454
-0.335000	-160.147433	-5.066637	-73.570646	0.048790	-0.159901	-0.044564	105.383707	9.614765	1.689084	14.237272	9.258922	-26.218435	-42.168238	29.494571	6.970382	45.439854	31.579063	25.131249	4.105288	47.606461	32.025768	18.091283	-4.461299	53.199733	38.742383	6.113013	-7.477232	63.443067	43.310560
-0.325000	-160.147433	-5.066637	-73.570646	0.045385	-0.157234	-0.047602	104.811853	10.540290	1.524778	13.888269	9.434495	-26.149321	-42.022357	30.000222	7.079579	45.371660	31.854905	25.833118	4.109086	47.594525	32.099076	18.967843	-4.425098	53.183590	38.957344	6.981300	-7.698866	63.755447	43.640009
-0.315000	-160.147433	-5.066637	-73.570646	0.041552	-0.154330	-0.050933	104.093205	11.519412	1.222966	13.566886	9.587883	-26.043910	-41.821853	30.652597	7.172279	45.264677	32.154826	26.642798	4.123181	47.564973	32.195305	20.062045	-4.374730	53.086707	39.134747	8.089656	-7.965604	64.097635	43.981193
-0.305000	-160.147433	-5.066637	-73.570646	0.037330	-0.151274	-0.054493	103.250014	12.522672	0.775072	13.321214	9.747720	-25.904642	-41.572043	31.373522	7.240747	45.148540	32.452373	27.496510	4.148820	47.536995	32.330283	21.323284	-4.313658	52.923775	39.286763	9.388893	-8.265226	64.457819	44.316991
-0.295000	-160.147433	-5.066637	-73.570646	0.032778	-0.148149	-0.058198	102.334794	13.515232	0.212124	13.178016	9.958744	-25.743759	-41.288438	32.043481	7.290841	45.042993	32.718487	28.318109	4.178682	47.528700	32.511851	22.669822	-4.251177	52.706745	39.429962	10.787587	-8.572317	64.800366	44.627914
-0.285000	-160.147433	-5.066637	-73.570646	0.027947	-0.145024	-0.061976	101.419692	14.466147	-0.403675	13.138746	10.257149	-25.587282	-41.006879	32.544315	7.338863	44.956618	32.938459	29.039065	4.200573	47.556051	32.739553	24.018283	-4.201234	52.439439	39.580934	12.181970	-8.853101	65.066913	44.895113
-0.275000	-160.147433	-5.066637	-73.570646	0.022877	-0.141960	-0.065773	100.579767	15.356963	-0.999965	13.189848	10.644403	-25.467077	-40.783111	32.803879	7.401279	44.891197	33.118265	29.614301	4.204864	47.632336	33.006274	25.304732	-4.178102	52.128103	39.753947	13.488466	-9.077334	65.198363	45.104880
-0.265000	-160.147433	-5.066637	-73.570646	0.017593	-0.139015	-0.069562	99.876563	16.184733	-1.517352	13.320237	11.076934	-25.403066	-40.676461	32.817327	7.484524	44.851426	33.279106	30.027731	4.190908	47.769915	33.301781	26.487879	-4.190569	51.800613	39.961538	14.661653	-9.231114	65.168263	45.254952
-0.255000	-160.147433	-5.066637	-73.570646	0.012115	-0.136256	-0.073334	99.347690	16.958041	-1.923913	13.532918	11.482901	-25.386796	-40.722173	32.634494	7.581046	44.855134	33.446600	30.287485	4.168170	47.982831	33.616814	27.539495	-4.237408	51.517231	40.215526	15.691320	-9.323687	65.008243	45.361074
-0.245000	-160.147433	-5.066637	-73.570646	0.006474	-0.133756	-0.077081	99.006391	17.688949	-2.215918	13.840988	11.800384	-25.379598	-40.906665	32.323599	7.673166	44.937493	33.642433	30.415431	4.151663	48.287742	33.946666	28.435031	-4.306661	51.361325	40.526039	16.585976	-9.385341	64.811088	45.460713
-0.235000	-160.147433	-5.066637	-73.570646	0.000715	-0.131588	-0.080790	98.851410	18.385530	-2.407581	14.249767	12.014748	-25.330803	-41.163204	31.934342	7.742360	45.144828	33.882420	30.437286	4.155063	48.702383	34.294555	29.154110	-4.379775	51.414159	40.899994	17.357313	-9.457855	64.709446	45.610280
-0.225000	-160.147433	-5.066637	-73.570646	-0.005098	-0.129810	-0.084441	98.882007	19.047888	-2.518484	14.738353	12.170574	-25.208174	-41.397287	31.482611	7.779448	45.518268	34.179833	30.378687	4.185580	49.242774	34.674973	29.690769	-4.439321	51.729310	41.343160	18.017604	-9.580937	64.837394	45.873367
-0.215000	-160.147433	-5.066637	-73.570646	-0.010881	-0.128455	-0.088005	99.108958	19.667744	-2.566697	15.255738	12.349964	-25.022810	-41.533472	30.964684	7.790746	46.073353	34.549512	30.268487	4.242822	49.920608	35.115022	30.064534	-4.476992	52.321470	41.867035	18.590889	-9.778523	65.286718	46.301402
-0.205000	-160.147433	-5.066637	-73.570646	-0.016531	-0.127529	-0.091452	99.554006	20.230463	-2.568925	15.736455	12.631964	-24.831940	-41.558590	30.388121	7.797215	46.786341	35.008520	30.144639	4.321225	50.741334	35.650358	30.320903	-4.497867	53.174292	42.495623	19.126167	-10.049369	66.073584	46.913895
-0.195000	-160.147433	-5.066637	-73.570646	-0.021939	-0.127023	-0.094751	100.237762	20.719204	-2.542563	16.127081	13.058429	-24.715721	-41.534184	29.793884	7.827569	47.597896	35.572256	30.055495	4.414097	51.703782	36.315115	30.516272	-4.518612	54.261030	43.265279	19.697456	-10.366668	67.132619	47.689480
-0.185000	-160.147433	-5.066637	-73.570646	-0.027011	-0.126912	-0.097874	101.163926	21.121323	-2.504517	16.408344	13.622122	-24.740828	-41.568952	29.251328	7.909774	48.437093	36.248883	30.052971	4.517277	52.803956	37.130916	30.694314	-4.560508	55.566969	44.216410	20.385917	-10.689050	68.347655	48.576581
-0.175000	-160.147433	-5.066637	-73.570646	-0.031692	-0.127162	-0.100800	102.309598	21.435376	-2.467242	16.600932	14.274331	-24.932237	-41.767941	28.830421	8.065973	49.255488	37.036432	30.180330	4.631229	54.045072	38.102866	30.869205	-4.641031	57.104359	45.382533	21.254189	-10.979633	69.609899	49.522178
-0.165000	-160.147433	-5.066637	-73.570646	-0.035977	-0.127725	-0.103516	103.626364	21.674488	-2.436988	16.751816	14.939586	-25.268442	-42.187924	28.574797	8.313238	50.051831	37.925344	30.460934	4.760755	55.450489	39.226131	31.028574	-4.767687	58.913969	46.782813	22.330147	-11.224310	70.875519	50.504835
-0.155000	-160.147433	-5.066637	-73.570646	-0.039893	-0.128546	-0.106012	105.049581	21.862593	-2.418234	16.906875	15.530012	-25.699595	-42.819573	28.497444	8.667900	50.873259	38.906484	30.893902	4.911983	57.069709	40.498241	31.157045	-4.935771	61.050473	48.419622	23.611993	-11.439929	72.191018	51.553045
-0.145000	-160.147433	-5.066637	-73.570646	-0.043462	-0.129559	-0.108273	106.509757	22.024730	-2.422409	17.082156	15.960962	-26.175168	-43.598503	28.599752	9.147346	51.795772	39.982910	31.459851	5.087774	58.967246	41.927099	31.268254	-5.129895	63.554707	50.279731	25.093396	-11.667875	73.670841	52.736927
-0.135000	-160.147433	-5.066637	-73.570646	-0.046682	-0.130699	-0.110280	107.941399	22.177342	-2.473349	17.247928	16.171835	-26.665353	-44.434419	28.894951	9.763652	52.898067	41.181496	32.136005	5.284435	61.192823	43.527672	31.427547	-5.328852	66.424219	52.338451	26.793874	-11.955177	75.437215	54.136297
-0.125000	-160.147433	-5.066637	-73.570646	-0.049521	-0.131894	-0.112009	109.287374	22.324589	-2.601845	17.334981	16.149949	-27.166892	-45.244539	29.416099	10.510086	54.237811	42.557378	32.914908	5.491958	63.744697	45.308802	31.751927	-5.512669	69.597207	54.566104	28.772877	-12.331016	77.552917	55.802276
-0.115000	-160.147433	-5.066637	-73.570646	-0.051955	-0.133074	-0.113444	110.497851	22.462142	-2.828385	17.262659	15.946666	-27.693765	-45.979917	30.203529	11.349811	55.829109	44.184023	33.816563	5.697026	66.545740	47.257991	32.384984	-5.668927	72.957519	56.932789	31.111881	-12.789816	79.981817	57.732824
